<svg width="981" height="981" viewBox="0 0 981 981" fill="none" xmlns="http://www.w3.org/2000/svg">
<path d="M490.5 17L727.25 80.437M490.5 17L253.75 80.437M490.5 17V138M727.25 80.437L900.563 253.75M727.25 80.437L640.5 238.5M900.563 253.75L964 490.5M900.563 253.75L612 421.5M900.563 253.75L640.5 238.5M900.563 253.75L833 490.5M964 490.5L900.563 727.25M964 490.5H833M900.563 727.25L727.25 900.563M900.563 727.25L833 490.5M900.563 727.25L572.5 775.5M727.25 900.563L490.5 964M727.25 900.563L572.5 775.5M490.5 964L253.75 900.563M490.5 964L460.5 775.5M253.75 900.563L80.437 727.25M253.75 900.563L460.5 775.5M80.437 727.25L17 490.5M80.437 727.25L198 525.5M17 490.5L80.437 253.75M17 490.5L198 525.5M80.437 253.75L253.75 80.437M80.437 253.75L353 204.5M80.437 253.75L368 395.5M253.75 80.437L353 204.5M612 421.5L353 618.5M612 421.5L640.5 238.5M612 421.5L640.5 580.5M353 618.5L368 395.5M353 618.5L198 525.5M353 618.5L460.5 775.5M353 618.5L640.5 580.5M368 395.5L353 204.5M368 395.5L198 525.5M368 395.5L640.5 238.5M353 204.5L490.5 138M490.5 138L640.5 238.5M460.5 775.5H572.5M572.5 775.5L640.5 580.5M640.5 580.5L833 490.5" stroke="black" stroke-width="34" stroke-linejoin="round"/>
</svg>
